<svg width="20" height="21" viewBox="0 0 20 21" fill="none" xmlns="http://www.w3.org/2000/svg">
<g clip-path="url(#clip0_308_2386)">
<path d="M0 3.31395C0 2.64054 0.225232 2.08498 0.675676 1.64729C1.12612 1.20957 1.71172 0.990723 2.43243 0.990723C3.14029 0.990723 3.71299 1.2062 4.15058 1.63719C4.60102 2.08163 4.82625 2.66074 4.82625 3.37456C4.82625 4.02102 4.60747 4.55973 4.16988 4.99072C3.71944 5.43516 3.12741 5.65738 2.39382 5.65738H2.37452C1.66666 5.65738 1.09396 5.43516 0.656371 4.99072C0.218784 4.54627 0 3.98734 0 3.31395ZM0.250965 20.9907V7.49576H4.53668V20.9907H0.250965ZM6.9112 20.9907H11.1969V13.4553C11.1969 12.984 11.2484 12.6203 11.3514 12.3644C11.5315 11.9065 11.805 11.5193 12.1718 11.2028C12.5386 10.8863 12.9987 10.7281 13.5521 10.7281C14.9936 10.7281 15.7143 11.7449 15.7143 13.7786V20.9907H20V13.2533C20 11.2601 19.5496 9.74828 18.6486 8.71798C17.7477 7.68768 16.5573 7.17253 15.0772 7.17253C13.417 7.17253 12.1236 7.92 11.1969 9.41495V9.45535H11.1776L11.1969 9.41495V7.49576H6.9112C6.93693 7.92673 6.94981 9.26679 6.94981 11.516C6.94981 13.7651 6.93693 16.9233 6.9112 20.9907Z" fill="#4A60A1"/>
</g>
<defs>
<clipPath id="clip0_308_2386">
<rect width="20" height="20" fill="white" transform="translate(0 0.990723)"/>
</clipPath>
</defs>
</svg>
