<svg width="20" height="21" viewBox="0 0 20 21" fill="none" xmlns="http://www.w3.org/2000/svg">
<path d="M8.07034 9.91261C8.07034 9.91261 9.96267 9.77395 9.96267 7.58365C9.96267 5.3932 8.41451 4.32422 6.45343 4.32422H0.000274658V16.5648H6.45343C6.45343 16.5648 10.3928 16.6876 10.3928 12.9519C10.3928 12.952 10.5646 9.91261 8.07034 9.91261ZM5.98893 6.49984H6.45343C6.45343 6.49984 7.3306 6.49984 7.3306 7.77342C7.3306 9.04684 6.81473 9.23147 6.22959 9.23147H2.84362V6.49984H5.98893ZM6.27107 14.3892H2.84362V11.1181H6.45343C6.45343 11.1181 7.76081 11.1012 7.76081 12.7991C7.76081 14.2309 6.78432 14.3784 6.27107 14.3892ZM15.6467 7.43858C10.8776 7.43858 10.8819 12.1418 10.8819 12.1418C10.8819 12.1418 10.5547 16.8208 15.6467 16.8208C15.6467 16.8208 19.8901 17.0601 19.8901 13.5659H17.7078C17.7078 13.5659 17.7806 14.8817 15.7195 14.8817C15.7195 14.8817 13.5369 15.0261 13.5369 12.7522H19.9629C19.9629 12.7521 20.666 7.43858 15.6467 7.43858ZM13.5129 11.1181C13.5129 11.1181 13.7794 9.23143 15.6952 9.23143C17.6107 9.23143 17.5867 11.1181 17.5867 11.1181H13.5129ZM18.095 6.55268H12.9786V5.04534H18.095V6.55268Z" fill="#4A60A1"/>
</svg>
